<svg id="visual" viewBox="0 0 900 600" width="900" height="600" xmlns="http://www.w3.org/2000/svg" xmlns:xlink="http://www.w3.org/1999/xlink" version="1.1"><path d="M0 121L13.7 126C27.3 131 54.7 141 82 137C109.3 133 136.7 115 163.8 111C191 107 218 117 245.2 116C272.3 115 299.7 103 327 98C354.3 93 381.7 95 409 94C436.3 93 463.7 89 491 97C518.3 105 545.7 125 573 121C600.3 117 627.7 89 654.8 94C682 99 709 137 736.2 150C763.3 163 790.7 151 818 133C845.3 115 872.7 91 886.3 79L900 67L900 0L886.3 0C872.7 0 845.3 0 818 0C790.7 0 763.3 0 736.2 0C709 0 682 0 654.8 0C627.7 0 600.3 0 573 0C545.7 0 518.3 0 491 0C463.7 0 436.3 0 409 0C381.7 0 354.3 0 327 0C299.7 0 272.3 0 245.2 0C218 0 191 0 163.8 0C136.7 0 109.3 0 82 0C54.7 0 27.3 0 13.7 0L0 0Z" fill="#ab98ab"></path><path d="M0 277L13.7 286C27.3 295 54.7 313 82 316C109.3 319 136.7 307 163.8 298C191 289 218 283 245.2 268C272.3 253 299.7 229 327 237C354.3 245 381.7 285 409 308C436.3 331 463.7 337 491 328C518.3 319 545.7 295 573 273C600.3 251 627.7 231 654.8 253C682 275 709 339 736.2 342C763.3 345 790.7 287 818 266C845.3 245 872.7 261 886.3 269L900 277L900 65L886.3 77C872.7 89 845.3 113 818 131C790.7 149 763.3 161 736.2 148C709 135 682 97 654.8 92C627.7 87 600.3 115 573 119C545.7 123 518.3 103 491 95C463.7 87 436.3 91 409 92C381.7 93 354.3 91 327 96C299.7 101 272.3 113 245.2 114C218 115 191 105 163.8 109C136.7 113 109.3 131 82 135C54.7 139 27.3 129 13.7 124L0 119Z" fill="#9a849a"></path><path d="M0 361L13.7 369C27.3 377 54.7 393 82 392C109.3 391 136.7 373 163.8 369C191 365 218 375 245.2 359C272.3 343 299.7 301 327 302C354.3 303 381.7 347 409 372C436.3 397 463.7 403 491 400C518.3 397 545.7 385 573 366C600.3 347 627.7 321 654.8 338C682 355 709 415 736.2 423C763.3 431 790.7 387 818 365C845.3 343 872.7 343 886.3 343L900 343L900 275L886.3 267C872.7 259 845.3 243 818 264C790.7 285 763.3 343 736.2 340C709 337 682 273 654.8 251C627.7 229 600.3 249 573 271C545.7 293 518.3 317 491 326C463.7 335 436.3 329 409 306C381.7 283 354.3 243 327 235C299.7 227 272.3 251 245.2 266C218 281 191 287 163.8 296C136.7 305 109.3 317 82 314C54.7 311 27.3 293 13.7 284L0 275Z" fill="#8a708a"></path><path d="M0 511L13.7 515C27.3 519 54.7 527 82 528C109.3 529 136.7 523 163.8 521C191 519 218 521 245.2 526C272.3 531 299.7 539 327 539C354.3 539 381.7 531 409 524C436.3 517 463.7 511 491 509C518.3 507 545.7 509 573 512C600.3 515 627.7 519 654.8 528C682 537 709 551 736.2 551C763.3 551 790.7 537 818 531C845.3 525 872.7 527 886.3 528L900 529L900 341L886.3 341C872.7 341 845.3 341 818 363C790.7 385 763.3 429 736.2 421C709 413 682 353 654.8 336C627.7 319 600.3 345 573 364C545.7 383 518.3 395 491 398C463.7 401 436.3 395 409 370C381.7 345 354.3 301 327 300C299.7 299 272.3 341 245.2 357C218 373 191 363 163.8 367C136.7 371 109.3 389 82 390C54.7 391 27.3 375 13.7 367L0 359Z" fill="#776177"></path><path d="M0 601L13.7 601C27.3 601 54.7 601 82 601C109.3 601 136.7 601 163.8 601C191 601 218 601 245.2 601C272.3 601 299.7 601 327 601C354.3 601 381.7 601 409 601C436.3 601 463.7 601 491 601C518.3 601 545.7 601 573 601C600.3 601 627.7 601 654.8 601C682 601 709 601 736.2 601C763.3 601 790.7 601 818 601C845.3 601 872.7 601 886.3 601L900 601L900 527L886.3 526C872.7 525 845.3 523 818 529C790.7 535 763.3 549 736.2 549C709 549 682 535 654.8 526C627.7 517 600.3 513 573 510C545.7 507 518.3 505 491 507C463.7 509 436.3 515 409 522C381.7 529 354.3 537 327 537C299.7 537 272.3 529 245.2 524C218 519 191 517 163.8 519C136.7 521 109.3 527 82 526C54.7 525 27.3 517 13.7 513L0 509Z" fill="#655265"></path></svg>